<svg width="400" height="133" viewBox="0 0 400 133" fill="none" xmlns="http://www.w3.org/2000/svg">
<path d="M2.98743 28.2227C34.8555 64.9014 59.0668 54.784 98.2086 27.4619C135.295 3.49506 167.125 -15.0305 204.729 26.6109C250.48 60.3885 266.024 54.0762 301.682 25.8363C345.283 -4.48087 368.56 -7.99948 398.635 25.0617" stroke="white" stroke-opacity="0.3"/>
<path d="M2.11781 54.7757C33.9859 91.4544 58.1971 81.337 97.339 54.0149C134.426 30.048 166.256 11.5225 203.86 53.1639C249.61 86.9415 265.154 80.6292 300.813 52.3893C344.414 22.0721 367.691 18.5535 397.766 51.6146" stroke="white" stroke-opacity="0.3"/>
<path d="M1.24842 81.3287C33.1165 118.007 57.3277 107.89 96.4696 80.5679C133.556 56.601 165.386 38.0754 202.99 79.7168C248.741 113.495 264.285 107.182 299.943 78.9422C343.544 48.6251 366.821 45.1065 396.896 78.1676" stroke="white" stroke-opacity="0.3"/>
<path d="M0.377253 107.882C32.2431 144.559 56.4549 134.441 95.5984 107.118C132.687 83.1497 164.518 64.623 202.119 106.263C247.868 140.04 263.412 133.727 299.072 105.486C342.675 75.1669 365.952 71.6475 396.025 104.708" stroke="white" stroke-opacity="0.3"/>
</svg>
