<svg width="436" height="121" viewBox="0 0 436 121" fill="none" xmlns="http://www.w3.org/2000/svg">
<path d="M3.2645 25.657C38.0878 59.0012 64.5442 49.8036 107.316 24.9654C147.842 3.17729 182.623 -13.6642 223.714 24.1917C273.708 54.8986 290.693 49.1601 329.658 23.4875C377.302 -4.07356 402.738 -7.2723 435.602 22.7833" stroke="white" stroke-opacity="0.3"/>
<path d="M2.31431 49.7961C37.1376 83.1403 63.594 73.9427 106.366 49.1045C146.891 27.3164 181.673 10.4749 222.764 48.3308C272.757 79.0377 289.743 73.2992 328.708 47.6266C376.352 20.0655 401.788 16.8668 434.652 46.9224" stroke="white" stroke-opacity="0.3"/>
<path d="M1.36411 73.9351C36.1874 107.279 62.6438 98.0817 105.415 73.2435C145.941 51.4554 180.723 34.614 221.814 72.4698C271.807 103.177 288.792 97.4383 327.758 71.7656C375.402 44.2046 400.837 41.0058 433.701 71.0614" stroke="white" stroke-opacity="0.3"/>
<path d="M0.412236 98.0743C35.233 131.418 61.6901 122.219 104.463 97.3799C144.991 75.5907 179.774 58.7482 220.862 96.603C270.853 127.309 287.839 121.57 326.806 95.896C374.452 68.3336 399.888 65.1341 432.749 95.1889" stroke="white" stroke-opacity="0.3"/>
</svg>
