<svg width="43" height="40" viewBox="0 0 43 40" fill="none" xmlns="http://www.w3.org/2000/svg">
<path d="M31.2612 28.7016L33.7044 27.5806C34.646 29.4274 35.91 31.0645 37.4455 32.4919C40.3299 29.0645 42.069 24.7258 42.069 20C42.069 15.2823 40.3384 10.9516 37.471 7.53226C35.961 8.92742 34.7054 10.5242 33.7722 12.3306L31.3375 11.1935C32.4234 9.09677 33.8825 7.24194 35.6471 5.62903C31.8635 2.15323 26.7226 0 21.0387 0C15.3634 0 10.2224 2.14516 6.43887 5.62097C8.19492 7.22581 9.65406 9.08064 10.7399 11.1694L8.30521 12.3065C7.37204 10.5081 6.12498 8.91129 4.61495 7.51613C1.73061 10.9435 0 15.2742 0 20C0 24.7258 1.73061 29.0565 4.61495 32.4758C6.15892 31.0484 7.43142 29.4113 8.37307 27.5565L10.8163 28.6774C9.72193 30.8306 8.24582 32.7339 6.44735 34.379C10.2224 37.8548 15.3634 40 21.0387 40C26.7056 40 31.838 37.8629 35.6216 34.3952C33.8316 32.75 32.3555 30.8548 31.2612 28.7016ZM11.8937 26.121L9.30624 25.3306C10.5703 21.5887 10.3836 17.7661 9.25534 14.5242L11.8343 13.7177C13.1068 17.3952 13.3613 21.7742 11.8937 26.121ZM30.2432 13.75L32.8221 14.5565C31.7023 17.7903 31.5072 21.6129 32.7712 25.3629L30.1838 26.1532C28.7162 21.7984 28.9707 17.4194 30.2432 13.75Z" fill="black"/>
</svg>
